# xmcd CD database file
#
# Track frame offsets:
#	150
#	23575
#	39170
#	57710
#	101942
#	124127
#	134020
#	162005
#	189067
#
# Disc length: 2573 seconds
#
# Revision: 0
# Processed by: cddbd v1.5.1PL2 Copyright (c) Steve Scherf et al.
# Submitted via: CDex 1.51
#
DISCID=740a0b09
DTITLE=Yttling Jazz - Oh Lord Why Can't I Keep My Big Mouth Shut
DYEAR=2005
DGENRE=Jazz
TTITLE0=Tokyo Hyatt
TTITLE1=Konstant Krease
TTITLE2=Mr Sofistication at the Losers Club
TTITLE3=Yttling Jazz #1
TTITLE4=Piano in the background
TTITLE5=Between two stools
TTITLE6=Det egentliga Västerbotten
TTITLE7=(Theme from) Woyceck
TTITLE8=My big mouth shut
EXTD=YEAR: 2005
EXTT0=
EXTT1=
EXTT2=
EXTT3=
EXTT4=
EXTT5=
EXTT6=
EXTT7=
EXTT8=
PLAYORDER=
